# xmcd
#
# Track frame offsets:
#	150
#	14489
#	31688
#	53727
#	72914
#	94404
#	107008
#	127314
#	146687
#	162044
#	180858
#
# Disc length: 2642 seconds
#
# Revision: 0
# Processed by: cddbd v1.5.2PL0 Copyright (c) Steve Scherf et al.
# Submitted via: dBpowerAMP V4.0
#
DISCID=900a500b
DTITLE=Michael Padgett - The Michael Padgett Band
DYEAR=2006
DGENRE=Country
TTITLE0=01 - Live Our Lives
TTITLE1=02 - All I Can Say
TTITLE2=03 - Broken Eyes
TTITLE3=04 - Texas Outlaws
TTITLE4=05 - Sherry Lynn
TTITLE5=06 - Blind
TTITLE6=07 - That's Why (Blue)
TTITLE7=08 - One Soul Angel
TTITLE8=09 - New Song
TTITLE9=10 - Secret Inside
TTITLE10=11 - Go On
EXTD=
EXTT0=
EXTT1=
EXTT2=
EXTT3=
EXTT4=
EXTT5=
EXTT6=
EXTT7=
EXTT8=
EXTT9=
EXTT10=
PLAYORDER=
